<?xml version="1.0" encoding="utf-8"?>
<!-- Generator: Adobe Illustrator 22.1.0, SVG Export Plug-In . SVG Version: 6.00 Build 0)  -->
<svg version="1.1" id="Layer_1" xmlns="http://www.w3.org/2000/svg" xmlns:xlink="http://www.w3.org/1999/xlink" x="0px" y="0px"
	 viewBox="0 0 250.7 61.7" style="enable-background:new 0 0 250.7 61.7;" xml:space="preserve">
<style type="text/css">
	.st0{fill:#003BD4;}
	.st1{fill:#1CA3FF;}
	.st2{fill:#1DA4FF;}
	.st3{fill:#0076D5;}
	.st4{fill:#008AD8;}
</style>
<title>Asset 9</title>
<g>
	<g>
		<g>
			<path class="st0" d="M60,39.1l1.8-4.1c2,1.5,5,2.5,7.8,2.5c3.2,0,4.5-1.1,4.5-2.6c0-4.4-13.8-1.4-13.8-10.2c0-4,3.2-7.4,10-7.4
				c3,0,6,0.8,8.2,2.1l-1.6,4.1c-2.2-1.3-4.5-1.8-6.6-1.8c-3.2,0-4.5,1.3-4.5,2.7c0,4.3,13.8,1.3,13.8,10.1c0,4-3.2,7.4-10.1,7.4
				C65.8,41.9,62,40.7,60,39.1z"/>
			<path class="st0" d="M102.6,32.3c0,5.7-4,9.4-9.1,9.4c-2.3,0-4.1-0.8-5.5-2.2V48h-5.2V23.3h5.1v2.1c1.3-1.6,3.2-2.3,5.7-2.3
				C98.6,23,102.6,26.7,102.6,32.3z M97.3,32.3c0-3.1-2-5.1-4.7-5.1s-4.7,1.9-4.7,5.1c0,3.2,2,5.1,4.7,5.1S97.3,35.5,97.3,32.3z"/>
			<path class="st0" d="M123.6,33.8h-13.8c0.5,2.3,2.4,3.7,5.2,3.7c1.9,0,3.4-0.5,4.5-1.7l2.8,3.1c-1.6,1.9-4.2,2.9-7.5,2.9
				c-6.3,0-10.4-4-10.4-9.4c0-5.5,4.1-9.4,9.7-9.4c5.3,0,9.5,3.6,9.5,9.5C123.7,32.8,123.7,33.4,123.6,33.8z M109.8,30.8h9
				c-0.3-2.3-2.1-3.8-4.5-3.8C111.9,27,110.1,28.4,109.8,30.8z"/>
			<path class="st0" d="M138.1,23v4.9c-0.4,0-0.8-0.1-1.2-0.1c-2.9,0-4.9,1.6-4.9,5.1v8.6h-5.2V23.3h5.1v2.4
				C133.1,24,135.3,23,138.1,23z"/>
			<path class="st0" d="M139.9,17.8c0-1.6,1.3-2.9,3.2-2.9c1.9,0,3.2,1.3,3.2,2.8c0,1.7-1.3,3.1-3.2,3.1
				C141.2,20.7,139.9,19.4,139.9,17.8z M140.5,23.3h5.2v18.2h-5.2V23.3z"/>
			<path class="st0" d="M168.7,16.4v25.1h-5v-2.1c-1.3,1.6-3.2,2.3-5.6,2.3c-5.2,0-9.1-3.7-9.1-9.4s4-9.4,9.1-9.4
				c2.3,0,4.1,0.8,5.5,2.2v-8.8H168.7z M163.5,32.3c0-3.1-2-5.1-4.7-5.1c-2.7,0-4.7,1.9-4.7,5.1c0,3.2,2,5.1,4.7,5.1
				S163.5,35.5,163.5,32.3z"/>
			<path class="st0" d="M172.4,17.8c0-1.6,1.3-2.9,3.2-2.9s3.2,1.3,3.2,2.8c0,1.7-1.3,3.1-3.2,3.1S172.4,19.4,172.4,17.8z M173,23.3
				h5.2v18.2H173V23.3z"/>
			<path class="st0" d="M198.7,31.1v10.4h-4.9v-2.3c-1,1.6-2.9,2.6-5.6,2.6c-4.2,0-6.8-2.3-6.8-5.5c0-3.2,2.3-5.5,7.8-5.5h4.1
				c0-2.3-1.3-3.6-4.1-3.6c-1.9,0-3.9,0.7-5.2,1.6l-1.9-3.7c2-1.4,4.9-2.2,7.8-2.2C195.4,23,198.7,25.6,198.7,31.1z M193.5,35.8V34
				h-3.7c-2.5,0-3.2,0.9-3.2,2.2c0,1.3,1.1,2.2,3,2.2C191.3,38.1,192.8,37.4,193.5,35.8z"/>
			<path class="st0" d="M221.5,31v10.5h-5.2v-9.6c0-2.9-1.3-4.3-3.7-4.3c-2.6,0-4.4,1.6-4.4,4.9v9.1h-5.2V23.3h5.1v2.2
				c1.4-1.6,3.6-2.4,6-2.4C218.3,23,221.5,25.5,221.5,31z"/>
		</g>
		<g>
			<path class="st1" d="M131.3,46.6h-2.7v-1h6.6v1h-2.7v7h-1.2V46.6z"/>
			<path class="st1" d="M142.1,52.6v1h-5.7v-8h5.6v1h-4.5v2.4h4v1h-4v2.6L142.1,52.6L142.1,52.6z"/>
			<path class="st1" d="M143.1,49.6c0-2.3,1.8-4.1,4.2-4.1c1.3,0,2.3,0.4,3,1.3l-0.8,0.8c-0.5-0.7-1.3-0.9-2.3-0.9
				c-1.8,0-3.1,1.3-3.1,3.1s1.3,3.1,3.1,3.1c0.9,0,1.6-0.3,2.3-0.9l0.8,0.8c-0.8,0.9-1.8,1.3-3.1,1.3
				C144.9,53.7,143.1,52,143.1,49.6z"/>
			<path class="st1" d="M158.6,45.6v8h-1.2V50h-4.5v3.6h-1.2v-8h1.2v3.4h4.5v-3.4H158.6z"/>
			<path class="st1" d="M167.7,45.6v8h-0.9l-4.8-5.9v5.9h-1.2v-8h0.9l4.8,5.9v-5.9H167.7z"/>
			<path class="st1" d="M169.4,49.6c0-2.3,1.8-4.1,4.2-4.1c2.4,0,4.2,1.7,4.2,4.1s-1.8,4.1-4.2,4.1C171.2,53.7,169.4,52,169.4,49.6z
				 M176.7,49.6c0-1.7-1.3-3.1-3.1-3.1s-3.1,1.3-3.1,3.1s1.3,3.1,3.1,3.1S176.7,51.3,176.7,49.6z"/>
			<path class="st1" d="M179.5,45.6h1.2v7h4.3v1h-5.5V45.6z"/>
			<path class="st1" d="M185.2,49.6c0-2.3,1.8-4.1,4.2-4.1c2.4,0,4.2,1.7,4.2,4.1s-1.8,4.1-4.2,4.1C187,53.7,185.2,52,185.2,49.6z
				 M192.5,49.6c0-1.7-1.3-3.1-3.1-3.1s-3.1,1.3-3.1,3.1s1.3,3.1,3.1,3.1C191.3,52.7,192.5,51.3,192.5,49.6z"/>
			<path class="st1" d="M200.9,49.6h1.1v3.1c-0.9,0.7-1.9,1-3,1c-2.4,0-4.2-1.7-4.2-4.1s1.8-4.1,4.2-4.1c1.3,0,2.3,0.4,3.1,1.3
				l-0.7,0.7c-0.7-0.7-1.4-0.9-2.3-0.9c-1.8,0-3.1,1.3-3.1,3.1c0,1.7,1.3,3.1,3.1,3.1c0.7,0,1.3-0.2,1.8-0.5L200.9,49.6L200.9,49.6z
				"/>
			<path class="st1" d="M204.1,45.6h1.2v8h-1.2V45.6z"/>
			<path class="st1" d="M213.2,52.6v1h-5.7v-8h5.6v1h-4.5v2.4h4v1h-4v2.6L213.2,52.6L213.2,52.6z"/>
			<path class="st1" d="M214.3,52.7l0.4-0.9c0.5,0.5,1.6,0.9,2.7,0.9c1.4,0,2-0.5,2-1.3c0-1.9-4.9-0.8-4.9-3.7
				c0-1.3,0.9-2.3,3.1-2.3c0.9,0,1.9,0.2,2.6,0.7l-0.4,0.9c-0.7-0.4-1.5-0.7-2.2-0.7c-1.3,0-1.9,0.5-1.9,1.3c0,1.9,4.9,0.8,4.9,3.7
				c0,1.3-1,2.3-3.1,2.3C216.1,53.7,214.9,53.3,214.3,52.7z"/>
		</g>
	</g>
	<g>
		<polygon class="st2" points="48,19.3 38.1,30.3 28.2,19.3 		"/>
		<polygon class="st2" points="58,30.3 48,41.5 38.1,30.3 		"/>
		<polygon class="st3" points="58,8.2 48,19.3 38.1,8.2 		"/>
		<polygon class="st4" points="28.2,19.3 38.1,8.2 48,19.3 		"/>
		<polygon class="st4" points="38.1,30.3 48,19.3 58,30.3 		"/>
		<polygon class="st3" points="28.2,41.5 38.1,30.3 48,41.5 		"/>
	</g>
</g>
</svg>
